PathFileType	4	(X/Y/Z)	Kaydara	
DataRate	CameraRate	NumFrames	NumMarkers	Units	OrigDataRate	OrigDataStartFrame	OrigNumFrames	
24.00	24.00	11	28	mm	24.00	1	250	
Frame#	Time	reference			Hips			Spine			Spine1			Neck			Head			Head_End			LeftShoulder			LeftArm			LeftForeArm			LeftHand			LeftHand_End			RightShoulder			RightArm			RightForeArm			RightHand			RightHand_End			LeftUpLeg			LeftLeg			LeftFoot			LeftFoot_End			RightUpLeg			RightLeg			RightFoot			RightFoot_End			Tail			Tail1			Tail1_End			
		X1	Y1	Z1	X2	Y2	Z2	X3	Y3	Z3	X4	Y4	Z4	X5	Y5	Z5	X6	Y6	Z6	X7	Y7	Z7	X8	Y8	Z8	X9	Y9	Z9	X10	Y10	Z10	X11	Y11	Z11	X12	Y12	Z12	X13	Y13	Z13	X14	Y14	Z14	X15	Y15	Z15	X16	Y16	Z16	X17	Y17	Z17	X18	Y18	Z18	X19	Y19	Z19	X20	Y20	Z20	X21	Y21	Z21	X22	Y22	Z22	X23	Y23	Z23	X24	Y24	Z24	X25	Y25	Z25	X26	Y26	Z26	X27	Y27	Z27	X28	Y28	Z28	

1	0.000	0.00000	0.00000	0.00000	249.21974	472.53075	-254.85321	249.22009	472.53070	-254.85305	243.08033	466.69080	-65.04209	176.53493	438.95760	148.17971	122.75774	423.00925	276.45184	81.73369	359.76972	428.82569	224.54933	408.03338	131.52316	248.43116	359.77621	190.69173	260.41087	223.22930	124.99971	210.08266	93.78023	236.32806	202.04291	37.96464	281.09387	142.42059	413.52619	106.60645	87.74687	356.59323	119.71350	96.24277	257.92874	4.39982	141.30878	86.99424	25.24290	158.88484	22.79900	52.70285	299.73722	393.43190	-309.09733	321.61548	268.86112	-211.09992	277.28577	117.55498	-297.94079	262.36256	13.23299	-274.31416	204.88101	399.05234	-321.08073	201.30668	254.53033	-252.51980	227.53617	142.94376	-391.30185	236.84057	39.43440	-420.68285	257.38765	465.59022	-322.76302	270.00179	362.50213	-382.87700	281.04763	256.14593	-437.34118 
2	0.042	0.00000	0.00000	0.00000	249.78794	472.17102	-251.30646	249.78829	472.17098	-251.30629	242.42401	467.23179	-61.51332	176.88840	438.11782	151.83714	125.04285	421.16520	280.77403	87.34482	357.68264	433.90412	224.69161	407.13443	134.69030	248.82186	358.48556	193.43580	261.04659	222.67120	126.28650	212.82259	87.46150	231.53275	203.86915	32.19972	276.80932	142.45576	413.14183	110.25019	88.02895	355.88080	122.94935	95.96290	258.42281	6.57453	141.19087	87.38227	26.15890	158.71167	22.79284	52.71494	300.00775	392.72537	-305.31968	321.37873	267.73467	-207.74592	277.33889	117.72625	-296.95340	262.46912	13.17958	-274.30651	205.23173	398.92603	-317.64648	200.63311	254.81241	-248.29155	227.14173	144.92208	-388.36801	236.39736	41.73054	-418.86129	258.15572	465.13600	-319.18220	270.42857	362.19135	-379.61183	280.85836	255.92573	-434.37345 
3	0.083	0.00000	0.00000	0.00000	250.35408	471.82610	-247.45514	250.35443	471.82605	-247.45497	242.55454	468.10868	-57.65154	177.76214	437.24575	155.68009	127.92589	419.51954	285.30340	92.72604	356.58855	439.25359	225.43036	406.31021	138.07710	249.88674	357.12355	196.23699	264.59408	222.47850	127.25569	213.68698	84.98522	228.19158	202.62854	31.83273	275.48343	143.11624	412.71641	114.00451	88.33584	355.76601	126.57957	95.69911	259.05136	9.54895	141.04975	87.82010	27.07491	158.61356	22.91406	52.81813	300.36972	392.20602	-301.40092	321.02362	266.63403	-204.42091	277.42800	117.84130	-295.85478	262.10995	13.09769	-274.45074	205.61766	398.67280	-313.77505	200.37982	255.09671	-243.35873	226.90959	147.26976	-385.02568	236.18243	44.41795	-416.64093	258.73287	464.72917	-315.32308	270.92592	361.94402	-376.03969	280.87791	255.83638	-431.19514 
4	0.125	0.00000	0.00000	0.00000	250.75512	471.45607	-243.64807	250.75547	471.45602	-243.64790	242.29316	469.00927	-53.85222	178.84815	436.26236	159.60346	130.76521	417.87596	289.79581	97.72313	355.07571	444.27671	226.33485	405.39887	141.39388	251.06395	355.58303	198.89927	267.04545	221.60634	128.90746	214.68655	83.44136	228.16961	203.15511	30.36060	275.42905	143.87690	412.19745	117.92885	88.88306	355.47752	130.61346	95.47541	259.74763	12.73032	140.68988	88.26408	27.99558	158.44255	23.02536	52.74931	300.65577	391.64815	-297.42251	320.59525	265.80586	-200.64355	277.63942	118.37007	-294.54504	262.34779	13.36189	-274.45903	205.91729	398.24278	-309.83317	199.68401	255.28461	-238.25039	226.71768	149.47052	-381.33277	236.04342	46.92081	-413.89947	259.13920	464.21034	-311.49963	271.32230	361.45479	-372.26831	280.88024	255.44302	-427.67724 
5	0.167	0.00000	0.00000	0.00000	250.75951	470.94986	-239.60846	250.75986	470.94982	-239.60829	241.75805	469.63456	-49.82621	179.84216	435.28824	163.82704	133.45617	416.39964	294.56202	102.26935	353.47960	449.37949	227.21214	404.58278	145.05496	252.30030	354.31105	202.00541	268.89049	221.16450	130.58569	215.66924	82.49474	228.67843	203.67866	29.58221	276.01220	144.58694	411.51316	122.22540	89.68221	354.80682	135.34915	94.26422	260.21216	16.45860	139.94943	88.63199	28.99211	158.05677	23.09691	52.68331	300.67120	391.11226	-293.32856	319.82830	264.92058	-196.84697	277.70103	118.84404	-293.21576	262.46252	13.58524	-274.44422	205.89063	397.50879	-305.51958	197.71270	255.51323	-232.23678	225.95991	151.81619	-376.62870	235.94273	49.49786	-409.72409	258.98914	463.56811	-307.46427	271.31068	360.77828	-368.14702	280.63895	254.84893	-423.75234 
6	0.208	0.00000	0.00000	0.00000	250.36346	470.16617	-235.36346	250.36382	470.16613	-235.36330	241.04234	470.03362	-45.59214	180.93062	434.62224	168.40219	136.24814	415.22218	299.65457	107.24063	352.29601	454.89265	228.22334	404.11509	149.11896	253.69504	353.68734	205.76037	270.87387	221.80626	132.16497	216.49464	82.22536	228.31102	204.62729	29.04587	275.37590	145.40052	410.93720	126.98345	90.37118	354.48817	140.68204	93.33469	260.86257	20.97585	139.29065	89.14585	30.21711	157.70277	23.27137	52.70136	300.33346	390.48124	-289.25576	319.48845	263.87416	-193.31950	277.77207	119.15572	-291.89092	262.57927	13.67889	-274.34630	205.44909	396.39233	-300.87074	195.25273	256.01109	-224.78441	224.86720	155.74264	-371.30822	235.02091	52.74154	-402.15751	258.20964	462.70749	-303.25627	270.74480	359.83291	-363.75135	280.02632	253.89091	-419.34041 
7	0.250	0.00000	0.00000	0.00000	249.99969	469.52095	-231.00525	250.00005	469.52091	-231.00509	240.31246	470.08625	-41.25306	181.89231	434.16575	173.12455	139.09275	414.13673	304.90889	111.55315	351.08941	460.36501	229.11730	403.81203	153.43742	254.78044	353.38676	209.99457	273.22793	222.73039	134.54512	217.25607	82.10602	228.22505	204.62076	28.76707	274.90803	146.11421	410.45845	131.93266	91.03291	354.16148	146.04203	93.00491	261.67022	25.43695	139.02650	89.83978	31.78490	157.59522	23.54547	52.86244	299.93344	389.92265	-285.05893	319.21847	262.85566	-189.75888	277.94664	119.56336	-290.57534	262.84587	13.85922	-274.37041	204.92999	395.32355	-295.92482	192.86936	257.37802	-215.76522	224.02175	161.18679	-364.68393	234.42379	57.30815	-392.34307	257.33560	461.89418	-298.93643	269.99648	358.85953	-359.13216	279.37368	252.80095	-414.48235 
8	0.292	0.00000	0.00000	0.00000	249.39056	468.98907	-226.69495	249.39092	468.98903	-226.69479	239.62464	469.28188	-36.94618	182.58857	433.51264	177.82907	141.74338	412.72767	310.11561	115.27425	350.35260	466.02820	229.78566	403.26940	157.90642	255.85400	353.08843	214.49553	273.93850	223.45488	137.21611	217.70802	81.61791	228.89161	204.38801	28.05393	275.12442	146.63664	409.63700	136.88650	91.69673	353.27628	151.28958	92.96749	262.40483	29.45005	138.76449	90.44183	33.36731	157.42185	23.77178	53.14108	299.18273	389.33721	-280.80031	319.06861	261.68448	-186.41089	278.00221	119.95448	-289.49417	262.93609	14.08504	-274.37220	204.08346	394.38242	-290.97711	190.69950	259.32508	-206.24003	223.02653	166.88074	-357.26657	234.43231	62.09522	-380.80179	256.24442	461.11191	-294.64789	269.30829	357.80010	-354.27984	279.03965	251.47893	-409.06220 
9	0.333	0.00000	0.00000	0.00000	248.62427	468.40290	-222.12585	248.62462	468.40286	-222.12570	238.58066	467.95883	-32.39188	182.79337	432.87411	182.82382	143.87442	411.59091	315.61093	118.36725	349.34258	471.73437	229.99104	402.71336	162.77788	256.50240	352.87698	219.46561	274.41095	224.41450	140.21480	217.65144	81.32692	229.59205	204.58955	27.12358	275.14839	146.71155	408.70584	142.16822	92.02965	352.16315	156.83747	92.69200	263.13704	33.63836	138.48338	91.13224	34.85571	157.52890	24.32784	53.78810	298.20414	388.73731	-276.40567	319.02608	260.63473	-182.83106	277.82912	120.60788	-288.16529	262.95936	14.54103	-274.28321	203.00346	393.43826	-285.76646	188.68842	262.07960	-195.54468	221.89843	172.78746	-348.26671	234.72705	67.19713	-366.97797	254.91006	460.32550	-290.11021	268.46666	356.72849	-349.13429	278.80405	250.08304	-403.17023 
10	0.375	0.00000	0.00000	0.00000	247.90852	467.79629	-217.06818	247.90887	467.79625	-217.06802	238.02845	467.26172	-27.32585	183.30608	432.73436	188.25309	146.55081	411.17856	321.61152	122.20184	348.91351	477.91313	230.48138	402.61855	168.08728	257.28300	352.88153	224.72576	273.96824	225.67506	143.21422	218.13697	80.77311	230.22161	204.72546	26.37348	275.44114	147.09498	408.35382	147.83990	92.74695	351.52784	162.65451	92.45189	263.86743	38.47853	138.41925	91.91405	36.74044	157.45560	24.69678	54.16031	297.02842	388.01007	-271.58848	318.90360	259.28494	-179.11498	277.57899	121.05454	-286.74696	262.90357	14.79119	-274.22781	201.72276	392.51402	-279.92149	187.15691	265.34985	-183.91576	221.29232	178.04416	-337.57935	235.06179	71.64124	-349.94155	253.46225	459.47232	-285.08652	267.40050	355.67289	-343.66439	278.25954	248.64833	-396.84166 
11	0.417	0.00000	0.00000	0.00000	247.11292	467.07680	-211.50024	247.11328	467.07676	-211.50010	237.47903	466.23575	-21.74638	183.61416	432.44552	194.16507	148.80060	410.78669	328.02689	125.33762	349.53220	484.86239	230.84650	402.43460	173.97642	257.95941	352.60765	230.38723	272.79551	227.07201	145.97925	217.71011	80.18000	230.07637	204.71695	25.80356	275.44571	147.37050	407.73596	153.98155	93.43849	350.53678	168.88002	91.97582	264.52752	43.56292	138.10352	92.68157	38.54405	157.26198	25.20870	54.80325	295.60970	387.20145	-266.44623	318.56812	257.92581	-175.00910	277.34358	121.71240	-285.22003	263.24258	15.19728	-274.27975	200.19099	391.52546	-273.47936	185.88582	269.13882	-171.41634	220.51984	182.59022	-325.39631	234.62719	75.64024	-330.56212	251.74327	458.55099	-279.56270	266.08485	354.56224	-337.70582	277.61974	247.10019	-389.84844 
